<?xml version="1.0" encoding="iso-8859-1"?>
<!-- Generator: Adobe Illustrator 19.0.0, SVG Export Plug-In . SVG Version: 6.00 Build 0)  -->
<svg version="1.1" id="Layer_1" xmlns="http://www.w3.org/2000/svg" xmlns:xlink="http://www.w3.org/1999/xlink" x="0px" y="0px"
	 viewBox="0 0 512 512" style="enable-background:new 0 0 512 512;" xml:space="preserve">
<g>
	<g>
		<g>
			<path d="M213.333,119.467H384c4.719,0,8.533-3.823,8.533-8.533S388.719,102.4,384,102.4H213.333
				c-4.719,0-8.533,3.823-8.533,8.533S208.614,119.467,213.333,119.467z"/>
			<path d="M324.267,230.4c0,4.71,3.814,8.533,8.533,8.533h85.333c4.719,0,8.533-3.823,8.533-8.533s-3.814-8.533-8.533-8.533H332.8
				C328.081,221.867,324.267,225.69,324.267,230.4z"/>
			<path d="M332.8,187.733H384c4.719,0,8.533-3.823,8.533-8.533s-3.814-8.533-8.533-8.533h-51.2c-4.719,0-8.533,3.823-8.533,8.533
				S328.081,187.733,332.8,187.733z"/>
			<path d="M401.067,273.067H332.8c-4.719,0-8.533,3.823-8.533,8.533s3.814,8.533,8.533,8.533h68.267
				c4.719,0,8.533-3.823,8.533-8.533S405.786,273.067,401.067,273.067z"/>
			<path d="M264.533,494.933H179.2c-4.719,0-8.533,3.823-8.533,8.533S174.481,512,179.2,512h85.333c4.719,0,8.533-3.823,8.533-8.533
				S269.252,494.933,264.533,494.933z"/>
			<path d="M332.8,494.933h-17.067c-4.719,0-8.533,3.823-8.533,8.533s3.814,8.533,8.533,8.533H332.8
				c4.719,0,8.533-3.823,8.533-8.533S337.519,494.933,332.8,494.933z"/>
			<path d="M185.233,227.9l2.5-2.5V281.6c0,4.71,3.814,8.533,8.533,8.533H281.6c4.719,0,8.533-3.823,8.533-8.533v-56.201l2.5,2.5
				c1.664,1.664,3.849,2.5,6.033,2.5c2.185,0,4.369-0.836,6.033-2.5c3.336-3.337,3.336-8.73,0-12.066L244.966,156.1
				c-3.337-3.337-8.73-3.337-12.066,0l-59.733,59.733c-3.337,3.337-3.337,8.73,0,12.066
				C176.503,231.236,181.897,231.236,185.233,227.9z M238.933,174.199l35.209,35.209c-0.623,1.195-1.075,2.483-1.075,3.925v59.733
				h-25.6v-25.6c0-4.71-3.814-8.533-8.533-8.533s-8.533,3.823-8.533,8.533v25.6h-25.6v-59.733c0-1.442-0.452-2.731-1.075-3.925
				L238.933,174.199z"/>
			<path d="M503.467,494.933H366.933c-4.719,0-8.533,3.823-8.533,8.533s3.814,8.533,8.533,8.533h136.533
				c4.719,0,8.533-3.823,8.533-8.533S508.186,494.933,503.467,494.933z"/>
			<path d="M162.133,102.4c-23.526,0-42.667,19.14-42.667,42.667v170.667c0,23.526,19.14,42.667,42.667,42.667H435.2
				c23.526,0,42.667-19.14,42.667-42.667V145.067c0-23.526-19.14-42.667-42.667-42.667h-8.533V68.267h76.8
				c4.719,0,8.533-3.823,8.533-8.533s-3.814-8.533-8.533-8.533H85.333V25.6c0-14.114-11.486-25.6-25.6-25.6s-25.6,11.486-25.6,25.6
				v469.333h-25.6c-4.719,0-8.533,3.823-8.533,8.533S3.814,512,8.533,512H128c4.719,0,8.533-3.823,8.533-8.533
				s-3.814-8.533-8.533-8.533H85.333V93.867c0-4.71-3.814-8.533-8.533-8.533s-8.533,3.823-8.533,8.533v401.067H51.2V25.6
				c0-4.702,3.823-8.533,8.533-8.533s8.533,3.831,8.533,8.533v34.133c0,4.71,3.814,8.533,8.533,8.533h93.867V102.4H162.133z
				 M179.2,119.467c4.719,0,8.533-3.823,8.533-8.533V68.267H409.6v42.667c0,4.71,3.814,8.533,8.533,8.533H435.2
				c14.114,0,25.6,11.486,25.6,25.6v170.667c0,14.114-11.486,25.6-25.6,25.6H162.133c-14.114,0-25.6-11.486-25.6-25.6V145.067
				c0-14.114,11.486-25.6,25.6-25.6H179.2z"/>
		</g>
	</g>
</g>
<g>
</g>
<g>
</g>
<g>
</g>
<g>
</g>
<g>
</g>
<g>
</g>
<g>
</g>
<g>
</g>
<g>
</g>
<g>
</g>
<g>
</g>
<g>
</g>
<g>
</g>
<g>
</g>
<g>
</g>
</svg>
